<?xml version="1.0" encoding="utf-8"?>
<!-- Generator: Adobe Illustrator 19.0.0, SVG Export Plug-In . SVG Version: 6.00 Build 0)  -->
<svg version="1.1" id="Layer_1" xmlns="http://www.w3.org/2000/svg" xmlns:xlink="http://www.w3.org/1999/xlink" x="0px" y="0px"
	 viewBox="-350 323 24 24" style="enable-background:new -350 323 24 24;" xml:space="preserve">
<style type="text/css">
	.st0{fill:#FFFFFF;}
</style>
<path class="st0" d="M-338,323.8c-6.2,0-11.2,5-11.2,11.2s5,11.2,11.2,11.2c6.2,0,11.2-5,11.2-11.2S-331.8,323.8-338,323.8z
	 M-332.8,336l-4.2,4.2c-0.5,0.5-1.4,0.5-2,0c-0.5-0.5-0.5-1.4,0-2l1.8-1.8h-5c-0.8,0-1.4-0.6-1.4-1.4s0.6-1.4,1.4-1.4h5l-1.8-1.8
	c-0.5-0.5-0.5-1.4,0-2c0.5-0.5,1.4-0.5,2,0l4.2,4.2C-332.3,334.6-332.3,335.4-332.8,336z"/>
</svg>
