<?xml version="1.0" encoding="utf-8"?>
<!-- Generator: Adobe Illustrator 24.0.0, SVG Export Plug-In . SVG Version: 6.00 Build 0)  -->
<svg version="1.1" id="Layer_1" xmlns="http://www.w3.org/2000/svg" xmlns:xlink="http://www.w3.org/1999/xlink" x="0px" y="0px"
	 viewBox="0 0 1363 373" style="enable-background:new 0 0 1363 373;" xml:space="preserve">
<style type="text/css">
	.st0{fill:#404040;}
</style>
<g>
	<path class="st0" d="M259.7,286.1H15c-3.3,0-6-2.7-6-6V119.8c0-3.3,2.7-6,6-6h244.6c3.3,0,6,2.7,6,6v160.3
		C265.7,283.4,263,286.1,259.7,286.1z"/>
	<path class="st0" d="M1348.3,286.1h-244.6c-3.3,0-6-2.7-6-6V119.8c0-3.3,2.7-6,6-6h244.6c3.3,0,6,2.7,6,6v160.3
		C1354.3,283.4,1351.6,286.1,1348.3,286.1z"/>
	<path class="st0" d="M601.1,325.8H220.8c-3.3,0-6-2.7-6-6V68.4c0-3.3,2.7-6,6-6h380.4c3.3,0,6,2.7,6,6v251.4
		C607.1,323.1,604.4,325.8,601.1,325.8z"/>
	<path class="st0" d="M1144.3,325.8H763.9c-3.3,0-6-2.7-6-6V68.4c0-3.3,2.7-6,6-6h380.4c3.3,0,6,2.7,6,6v251.4
		C1150.3,323.1,1147.6,325.8,1144.3,325.8z"/>
	<g>
		
			<image style="overflow:visible;opacity:0.5;" width="642" height="470" xlink:href="577673AA.png"  transform="matrix(1 0 0 1 368 -40)">
		</image>
		<g>
			<path class="st0" d="M939.7,365H424.1c-3.3,0-6-2.7-6-6V17c0-3.3,2.7-6,6-6h515.6c3.3,0,6,2.7,6,6V359
				C945.7,362.3,943,365,939.7,365z"/>
		</g>
	</g>
</g>
</svg>
