<?xml version="1.0" encoding="utf-8"?>
<!-- Generator: Adobe Illustrator 24.0.0, SVG Export Plug-In . SVG Version: 6.00 Build 0)  -->
<svg version="1.1" id="Layer_1" xmlns="http://www.w3.org/2000/svg" xmlns:xlink="http://www.w3.org/1999/xlink" x="0px" y="0px"
	 viewBox="0 0 230.4 240.9" style="enable-background:new 0 0 230.4 240.9;" xml:space="preserve">
<style type="text/css">
	.st0{fill:#0096FE;}
	.st1{fill:url(#SVGID_1_);}
	.st2{fill:url(#SVGID_2_);}
	.st3{fill:url(#SVGID_3_);}
	.st4{fill:url(#SVGID_4_);}
	.st5{fill:url(#SVGID_5_);}
	.st6{fill:url(#SVGID_6_);}
	.st7{fill:url(#SVGID_7_);}
	.st8{fill:url(#SVGID_8_);}
	.st9{fill:url(#SVGID_9_);}
	.st10{fill:url(#SVGID_10_);}
	.st11{fill:url(#SVGID_11_);}
	.st12{fill:url(#SVGID_12_);}
	.st13{fill:url(#SVGID_13_);}
	.st14{fill:url(#SVGID_14_);}
	.st15{fill:url(#SVGID_15_);}
	.st16{fill:url(#SVGID_16_);}
	.st17{fill:#FFFFFF;}
</style>
<g>
	
		<image style="overflow:visible;opacity:0.5;" width="213" height="213" xlink:href="57013F69.png"  transform="matrix(1 0 0 1 8.9091 7.2727)">
	</image>
	<g>
		<circle class="st0" cx="115.9" cy="113.9" r="91"/>
	</g>
</g>
<g>
	
		<image style="overflow:visible;opacity:0.4;enable-background:new    ;" width="213" height="213" xlink:href="57013F69.png"  transform="matrix(1.0121 0 0 1.0121 6.124 14.9876)">
	</image>
	<g>
		<g>
			<g>
				
					<linearGradient id="SVGID_1_" gradientUnits="userSpaceOnUse" x1="24.5091" y1="129.0727" x2="127.8702" y2="129.0727" gradientTransform="matrix(1 0 0 -1 0 238.5455)">
					<stop  offset="0" style="stop-color:#1FA2FF"/>
					<stop  offset="1" style="stop-color:#0096FE"/>
				</linearGradient>
				<path class="st1" d="M24.9,114.8C24.9,77.2,48.1,45,81,31.7c-0.1-0.2-0.1-0.4-0.1-0.4c-33.1,13.2-56.4,45.5-56.4,83.2
					c0,30.3,15,57,38,73.2C39.7,171.5,24.9,144.9,24.9,114.8z"/>
				
					<linearGradient id="SVGID_2_" gradientUnits="userSpaceOnUse" x1="24.9091" y1="211.6227" x2="203.9091" y2="211.6227" gradientTransform="matrix(1 0 0 -1 0 238.5455)">
					<stop  offset="0" style="stop-color:#33AAFF"/>
					<stop  offset="1" style="stop-color:#008FF5"/>
				</linearGradient>
				<path class="st2" d="M114.4,25.3c-8.4,0-16.6,1.2-24.3,3.3C98.9,26.4,107,25.4,114.4,25.3L114.4,25.3z"/>
				
					<linearGradient id="SVGID_3_" gradientUnits="userSpaceOnUse" x1="24.4831" y1="211.6227" x2="127.8442" y2="211.6227" gradientTransform="matrix(1 0 0 -1 0 238.5455)">
					<stop  offset="0" style="stop-color:#1FA2FF"/>
					<stop  offset="1" style="stop-color:#0096FE"/>
				</linearGradient>
				<path class="st3" d="M114.4,25.3c-8.4,0-16.6,1.2-24.3,3.3C98.9,26.4,107,25.4,114.4,25.3L114.4,25.3z"/>
				
					<linearGradient id="SVGID_4_" gradientUnits="userSpaceOnUse" x1="24.9091" y1="120.7227" x2="203.9091" y2="120.7227" gradientTransform="matrix(1 0 0 -1 0 238.5455)">
					<stop  offset="0" style="stop-color:#33AAFF"/>
					<stop  offset="1" style="stop-color:#008FF5"/>
				</linearGradient>
				<path class="st4" d="M127.8,202.9c-47.3-2.3-84.9-41.5-84.9-89.4c0-31.4,16.2-59,40.6-74.9c-1.4-3.6-2.2-6-2.5-6.9
					C48.1,45,24.9,77.2,24.9,114.8c0,30.1,14.8,56.7,37.6,72.9C77.1,198,94.8,204,114,204C118.7,204,123.3,203.6,127.8,202.9z"/>
				
					<linearGradient id="SVGID_5_" gradientUnits="userSpaceOnUse" x1="80.9091" y1="210.3227" x2="203.5211" y2="210.3227" gradientTransform="matrix(1 0 0 -1 0 238.5455)">
					<stop  offset="0" style="stop-color:#1FA2FF"/>
					<stop  offset="1" style="stop-color:#0096FE"/>
				</linearGradient>
				<path class="st5" d="M146.4,31.2c-8.1-3.3-17.7-5.7-28.9-5.9c-0.1,0-0.2,0-0.2,0C127.5,25.7,137.3,27.7,146.4,31.2z"/>
				
					<linearGradient id="SVGID_6_" gradientUnits="userSpaceOnUse" x1="80.9091" y1="207.2727" x2="203.5211" y2="207.2727" gradientTransform="matrix(1 0 0 -1 0 238.5455)">
					<stop  offset="0" style="stop-color:#1FA2FF"/>
					<stop  offset="1" style="stop-color:#0096FE"/>
				</linearGradient>
				<path class="st6" d="M80.9,31.3L80.9,31.3L80.9,31.3L80.9,31.3z"/>
				
					<linearGradient id="SVGID_7_" gradientUnits="userSpaceOnUse" x1="24.9091" y1="149.7727" x2="203.9091" y2="149.7727" gradientTransform="matrix(1 0 0 -1 0 238.5455)">
					<stop  offset="0" style="stop-color:#33AAFF"/>
					<stop  offset="1" style="stop-color:#008FF5"/>
				</linearGradient>
				<path class="st7" d="M83.5,38.6c7.9,20,35.8,76.4,110.4,113.7c0,0,30-50-16-100c-6.8-5.8-16.8-15.1-31.5-21.1
					c-9.1-3.5-18.9-5.5-29.2-5.9C104.9,27.4,93.5,32,83.5,38.6z"/>
				
					<linearGradient id="SVGID_8_" gradientUnits="userSpaceOnUse" x1="80.9091" y1="149.7727" x2="203.5211" y2="149.7727" gradientTransform="matrix(1 0 0 -1 0 238.5455)">
					<stop  offset="0" style="stop-color:#1FA2FF"/>
					<stop  offset="1" style="stop-color:#0096FE"/>
				</linearGradient>
				<path class="st8" d="M83.5,38.6c7.9,20,35.8,76.4,110.4,113.7c0,0,30-50-16-100c-6.8-5.8-16.8-15.1-31.5-21.1
					c-9.1-3.5-18.9-5.5-29.2-5.9C104.9,27.4,93.5,32,83.5,38.6z"/>
				
					<linearGradient id="SVGID_9_" gradientUnits="userSpaceOnUse" x1="24.4831" y1="208.4227" x2="127.8442" y2="208.4227" gradientTransform="matrix(1 0 0 -1 0 238.5455)">
					<stop  offset="0" style="stop-color:#1FA2FF"/>
					<stop  offset="1" style="stop-color:#0096FE"/>
				</linearGradient>
				<path class="st9" d="M90.1,28.6c-2.9,0.7-5.9,1.6-9,2.6c0,0-0.1,0-0.1,0.1c0,0,0,0.2,0.1,0.4C84,30.6,87,29.5,90.1,28.6z"/>
				
					<linearGradient id="SVGID_10_" gradientUnits="userSpaceOnUse" x1="80.9124" y1="208.4227" x2="203.5244" y2="208.4227" gradientTransform="matrix(1 0 0 -1 0 238.5455)">
					<stop  offset="0" style="stop-color:#1FA2FF"/>
					<stop  offset="1" style="stop-color:#0096FE"/>
				</linearGradient>
				<path class="st10" d="M90.1,28.6c-2.9,0.7-5.9,1.6-9,2.6c0,0-0.1,0-0.1,0.1c0,0,0,0.2,0.1,0.4C84,30.6,87,29.5,90.1,28.6z"/>
				
					<linearGradient id="SVGID_11_" gradientUnits="userSpaceOnUse" x1="24.4831" y1="213.2727" x2="127.8442" y2="213.2727" gradientTransform="matrix(1 0 0 -1 0 238.5455)">
					<stop  offset="0" style="stop-color:#1FA2FF"/>
					<stop  offset="1" style="stop-color:#0096FE"/>
				</linearGradient>
				<path class="st11" d="M114.4,25.3c0.9,0,1.9,0,2.8,0c0.1,0,0.2,0,0.2,0C116.5,25.3,115.5,25.3,114.4,25.3z"/>
				
					<linearGradient id="SVGID_12_" gradientUnits="userSpaceOnUse" x1="80.9091" y1="213.2727" x2="203.5211" y2="213.2727" gradientTransform="matrix(1 0 0 -1 0 238.5455)">
					<stop  offset="0" style="stop-color:#1FA2FF"/>
					<stop  offset="1" style="stop-color:#0096FE"/>
				</linearGradient>
				<path class="st12" d="M114.4,25.3c0.9,0,1.9,0,2.8,0c0.1,0,0.2,0,0.2,0C116.5,25.3,115.5,25.3,114.4,25.3z"/>
				
					<linearGradient id="SVGID_13_" gradientUnits="userSpaceOnUse" x1="24.9091" y1="206.6227" x2="203.9091" y2="206.6227" gradientTransform="matrix(1 0 0 -1 0 238.5455)">
					<stop  offset="0" style="stop-color:#33AAFF"/>
					<stop  offset="1" style="stop-color:#008FF5"/>
				</linearGradient>
				<path class="st13" d="M114.4,25.3c-7.4,0.1-15.5,1.1-24.3,3.3c-3.1,0.9-6.1,1.9-9,3.1c0.3,0.9,1,3.3,2.5,6.9
					c9.9-6.6,21.3-11.2,33.6-13.3C116.3,25.3,115.4,25.3,114.4,25.3z"/>
				
					<linearGradient id="SVGID_14_" gradientUnits="userSpaceOnUse" x1="24.4831" y1="206.6227" x2="127.8442" y2="206.6227" gradientTransform="matrix(1 0 0 -1 0 238.5455)">
					<stop  offset="0" style="stop-color:#1FA2FF"/>
					<stop  offset="1" style="stop-color:#0096FE"/>
				</linearGradient>
				<path class="st14" d="M114.4,25.3c-7.4,0.1-15.5,1.1-24.3,3.3c-3.1,0.9-6.1,1.9-9,3.1c0.3,0.9,1,3.3,2.5,6.9
					c9.9-6.6,21.3-11.2,33.6-13.3C116.3,25.3,115.4,25.3,114.4,25.3z"/>
				
					<linearGradient id="SVGID_15_" gradientUnits="userSpaceOnUse" x1="80.9091" y1="206.6227" x2="203.5211" y2="206.6227" gradientTransform="matrix(1 0 0 -1 0 238.5455)">
					<stop  offset="0" style="stop-color:#1FA2FF"/>
					<stop  offset="1" style="stop-color:#0096FE"/>
				</linearGradient>
				<path class="st15" d="M114.4,25.3c-7.4,0.1-15.5,1.1-24.3,3.3c-3.1,0.9-6.1,1.9-9,3.1c0.3,0.9,1,3.3,2.5,6.9
					c9.9-6.6,21.3-11.2,33.6-13.3C116.3,25.3,115.4,25.3,114.4,25.3z"/>
				<path class="st0" d="M146.4,31.2c14.7,6,24.7,15.3,31.5,21.1c46,50,16,100,16,100C119.3,115,91.4,58.6,83.5,38.6
					c-32.3,15.3-46.7,48.7-40.6,74.9c-10.4,44.8,40.6,95.8,84.9,89.4c-4.5,0.7-9.1,1.1-13.9,1.1c-11.6,0-22.7-2.2-32.9-6.3l2.7-1.1
					c0,0-24.6-23-36.6-23l-6,41l39.8-16.8c10.4,4.2,21.7,6.5,33.5,6.5c49.4,0,89.5-40.1,89.5-89.5C203.9,76.7,180,44.1,146.4,31.2z"
					/>
				
					<linearGradient id="SVGID_16_" gradientUnits="userSpaceOnUse" x1="24.4831" y1="120.7227" x2="127.8442" y2="120.7227" gradientTransform="matrix(1 0 0 -1 0 238.5455)">
					<stop  offset="0" style="stop-color:#1FA2FF"/>
					<stop  offset="1" style="stop-color:#0096FE"/>
				</linearGradient>
				<path class="st16" d="M127.8,202.9c-47.3-2.3-84.9-41.5-84.9-89.4c0-31.4,16.2-59,40.6-74.9c-1.4-3.6-2.2-6-2.5-6.9
					C48.1,45,24.9,77.2,24.9,114.8c0,30.1,14.8,56.7,37.6,72.9C77.1,198,94.8,204,114,204C118.7,204,123.3,203.6,127.8,202.9z"/>
			</g>
			<g>
				<g>
					<circle class="st17" cx="116.9" cy="119.3" r="11.4"/>
				</g>
				<g>
					<circle class="st17" cx="79.3" cy="119.3" r="11.4"/>
				</g>
				<g>
					<circle class="st17" cx="155.5" cy="119.3" r="11.4"/>
				</g>
			</g>
		</g>
	</g>
</g>
</svg>
