<?xml version="1.0" encoding="utf-8"?>
<!-- Generator: Adobe Illustrator 24.0.0, SVG Export Plug-In . SVG Version: 6.00 Build 0)  -->
<svg version="1.1" id="Layer_1" xmlns="http://www.w3.org/2000/svg" xmlns:xlink="http://www.w3.org/1999/xlink" x="0px" y="0px"
	 viewBox="0 0 258.2 260.2" style="enable-background:new 0 0 258.2 260.2;" xml:space="preserve">
<style type="text/css">
	.st0{fill:#3F3F46;}
	.st1{fill:#0096FE;}
	.st2{fill:#262626;}
	.st3{fill:#442D47;}
</style>
<g>
	<g>
		<g>
			<g>
				<path class="st0" d="M89.1,13.4c-4.1,6.1-4.2,13.4-1.5,20.1c3,7.2,9.5,12.5,16.2,16c7.5,3.9,16.1,5.4,23,10.2
					c5.8,4,9.9,10.2,11.9,16.9c1.1,3.8,1.6,7.7,1.4,11.6c-0.2,3.9-1.5,7.4-2.1,11.2c-0.1,0.9,1.2,1.4,1.8,0.8
					c4.1-4.9,4.2-12.9,3.4-19c-0.9-6.6-3.7-13-7.9-18.2c-4.9-6.1-11.6-9.3-18.8-11.9c-7.8-2.9-15.6-6-21.3-12.3
					c-5.8-6.4-8.8-16.5-4.6-24.5C91.1,13.3,89.7,12.4,89.1,13.4L89.1,13.4z"/>
			</g>
			<g>
				<path class="st1" d="M75.8,85.4c0,0-1.3-11.2,4.7-12.4c6-1.1,22-0.8,25.2,3.1c3.1,3.9,1.3,11.8,1.3,11.8L75.8,85.4z"/>
				<path class="st1" d="M172.8,95.8c0,0-1-7,2.9-10.7c4-3.7,16.8-2,23-0.6c6.1,1.4,6.8,6.4,7,8.7c0.2,2.3-0.5,6.6-0.5,6.6
					L172.8,95.8z"/>
				<path class="st0" d="M216.6,114.2c-2.3-6.8-5.3-13.5-10.9-18.2c-4.9-4.2-11.1-6.7-17.6-7c-7.1-0.3-14.2,2.1-19.4,6.9
					c-0.1,0-0.1,0-0.2,0c-0.1,0-0.2,0-0.2,0c-0.1,0-0.2,0-0.2,0c-0.2,0-0.5,0-0.7,0c-2.4-0.2-4.9-0.3-7.3-0.5
					c-5.3-0.4-10.6-0.8-16-1.3c-8.9-0.7-17.8-1.3-26.7-1.8c-0.2-0.2-0.4-0.4-0.6-0.6c-0.1-0.1-0.2-0.2-0.3-0.3c-0.3-0.3-0.7-0.7-1-1
					c-0.6-0.5-1.2-1.1-1.8-1.6c-3.2-2.8-6.9-5.2-10.8-6.9c-8.6-3.9-18.7-5.1-27.2-0.4c-9.4,5.1-14.6,14.7-19.1,24
					c-4.5,9.3-8.9,18.8-12.2,28.6c-3.3,9.6-8.2,21.7-9.1,33c-0.1,1.5-0.2,3-0.1,4.5c0.1,2.6,0.4,5.1,1,7.5
					c1.8,6.8,6.8,12.7,13.9,14.1c8.1,1.6,16.2-1.9,22.9-6.2c6.4-4.1,12-9.2,16.7-15.1c2.6-3.2,4.9-6.7,7-10.2c1.2-2,2.6-4.3,3.7-6.6
					c4,0.5,8,1.4,11.9,2c7.3,1.1,14.6,2,22,2.8c7.3,0.9,14.7,1.6,22,2.6c3.8,0.5,7.5,1.1,11.2,1.7c0.3,0,0.5,0.1,0.8,0.1
					c3.6,16.8,10.3,33.4,25.5,42.8c8,4.9,19.1,8.1,26.2-0.1c3.2-3.6,4.4-8.2,5.2-12.9c0.4-2.6,0.8-5.3,1-7.9
					c0.2-2.6,0.3-5.2,0.4-7.8c0-0.9,0-1.8,0-2.7c0-8-0.6-16.1-1.5-24c-0.4-4.1-1.1-8.3-1.8-12.3
					C221.6,130.8,219.4,122.3,216.6,114.2z"/>
				<path class="st1" d="M168.3,95.8c-0.3,6.6-0.7,13.1-2.8,15c-3.7,3.3-13.6,3.2-28.5,1.8c-14.9-1.5-18.2-3.3-20-8.4
					c-0.8-2.2-0.7-7.3-0.3-12.6c0.2,0.2,0.4,0.4,0.6,0.6c8.9,0.5,17.8,1.1,26.7,1.8c5.3,0.4,10.6,0.9,16,1.3
					c2.4,0.2,4.9,0.3,7.3,0.5c0.2,0,0.5,0,0.7,0C168.1,95.8,168.2,95.8,168.3,95.8z"/>
				<g>
					<path class="st1" d="M167.1,126.4c-2.2-2.1-4.9-4.1-8-4.6c-3.5-0.6-7.4,0.4-10.3,2.6c-2.2,1.6-3.8,4.1-4.5,6.8
						c-1.5,5.7,1.3,12,6.6,14.7c3.8,1.9,8.6,2.1,12.5,0.3c4.1-1.8,6.6-5.9,7-10.3C170.8,132.5,169.7,128.8,167.1,126.4z"/>
					<path class="st1" d="M164.3,128.8c-1.5-1.5-3.5-2.9-5.6-3.3c-1.5-0.3-3.8-0.3-5.2,0.6c-0.8,0.3-1.6,0.6-2.4,1.2
						c-1.6,1.2-2.7,3-3.2,4.9c-1.1,4.1,0.9,8.5,4.7,10.5c2,1,4.2,1.2,6.4,0.9c1.2-0.2,2.6-0.4,3.7-1.1c0.9-0.6,1.7-1.4,2.4-2.3
						C167.2,136.7,167.3,131.7,164.3,128.8z M164.3,138c-1.8,3.5-6.2,5.3-10.1,4.1c-3.7-1.1-5.9-4.5-5.6-8.4
						c0.4-5.6,7.6-8.9,12.4-6.3c3,1.6,4.6,5.2,4,8.5C164.9,136.7,164.6,137.3,164.3,138z"/>
				</g>
				<g>
					<path class="st1" d="M121.9,122.1c-2.2-2.1-4.9-4.1-8-4.6c-3.5-0.6-7.4,0.4-10.3,2.6c-2.2,1.6-3.8,4.1-4.5,6.8
						c-1.5,5.7,1.3,12,6.6,14.7c3.8,1.9,8.6,2.1,12.5,0.3c4.1-1.8,6.6-5.9,7-10.3C125.5,128.2,124.5,124.5,121.9,122.1z"/>
					<path class="st1" d="M119.1,124.5c-1.5-1.5-3.5-2.9-5.6-3.3c-1.5-0.3-3.8-0.3-5.2,0.6c-0.8,0.3-1.6,0.6-2.4,1.2
						c-1.6,1.2-2.7,3-3.2,4.9c-1.1,4.1,0.9,8.5,4.7,10.5c2,1,4.2,1.1,6.4,0.9c1.2-0.2,2.6-0.4,3.7-1.1c0.9-0.6,1.7-1.4,2.4-2.3
						C122,132.4,122,127.4,119.1,124.5z M119.1,133.7c-1.8,3.5-6.2,5.3-10.1,4.1c-3.7-1.1-5.9-4.5-5.6-8.4c0.4-5.6,7.6-8.9,12.4-6.3
						c3,1.6,4.6,5.2,4,8.5C119.6,132.4,119.4,133.1,119.1,133.7z"/>
				</g>
				<g>
					<path class="st2" d="M175,158.3c0.3,0.6,0,1.4-0.7,1.8c-0.2,0.1-0.5,0.2-0.8,0.1c-24.6-4.7-50-4.4-74.2-11.1
						c-4.7,7.8-9.8,15.6-16.4,22c-10.4,10-26.4,16.3-39.9,8.3c-3.3-2-6-4.7-7.8-7.9c-0.1-1.5,0-3,0.1-4.5
						c4.4,12.5,19.2,16.6,31.2,12.2c14.8-5.3,23.3-19.2,31.5-31.7c0.2-0.4,0.6-0.5,1.1-0.4c24.5,6.9,50.2,5.9,75.1,10.7
						C174.6,157.8,174.8,158,175,158.3z"/>
				</g>
				<g>
					<path class="st2" d="M226.1,186.1c-1.1,2.5-2.6,4.8-4.5,6.9c-5.1,5.5-12.5,7.9-19.7,5.6c-7-2.2-12.4-7.8-16.6-13.6
						c-5.3-7.5-8.9-16-11-24.9c-0.1-0.3-0.2-0.6-0.2-0.9c-0.1-0.6,0.4-0.9,0.9-0.9l0,0c0.2,0,0.5,0.2,0.5,0.5
						c2.3,9.4,6.5,18.4,12.4,26c4,5.2,9.6,10.2,16.2,11.7c7.5,1.7,14.3-2.5,18.2-8.8c2.3-3.7,3.5-7.8,4.2-12.1c0,0,0,0,0,0
						L226.1,186.1z"/>
				</g>
				<g>
					<path class="st3" d="M78.8,118.1c1.7,1.1,4.1,1.4,6.1,1.2c0.9-0.1,1.9-0.1,2.5-0.9c0.6-0.8,0.6-2.1,0.8-3
						c0.2-1.2,0.4-2.3,0.6-3.5c0-0.3,0.1-0.6,0.1-0.8c0-0.1,0-0.2,0.1-0.3c0.1-0.2,0-0.3-0.4-0.1c0,0.1,1.2,0.6,1.3,0.6
						c1.9,0.7,4.6,1.3,6.5,0.5c1-0.5,0.8-2.2-0.3-2.4c-1-0.2-2,0-3-0.1c-1-0.1-2-0.3-2.9-0.6c-0.9-0.3-1.8-0.3-2.5,0.4
						c-0.7,0.7-0.8,1.6-0.9,2.6c-0.2,1.1-0.4,2.2-0.6,3.3c-0.1,0.6-0.2,1.1-0.3,1.7c0,0.2-0.1,0.4-0.1,0.7c-0.1,0.2,0,0.2,0.1,0
						c-0.1,0-0.1,0-0.2,0.1c-0.5,0-1,0.2-1.5,0.2c-0.5,0-1.1,0-1.6-0.1c-1.1-0.1-2-0.5-3.1-0.8C78.6,116.2,78,117.5,78.8,118.1
						L78.8,118.1z"/>
				</g>
				<g>
					<path class="st3" d="M71.9,106.9c0.6,0.7,1.5,0.9,2.3,1.2c0.7,0.3,1.4,0.5,2.1,0.8c0.7,0.2,1.4,0.5,2.1,0.7
						c0.4,0.1,0.7,0.2,1.1,0.4c0.7,0.2,1.2,0.2,1.8-0.1c0.7-0.3,0.9-1.3,0.5-1.9c-0.6-0.9-1.7-1.1-2.7-1.3c-0.7-0.2-1.4-0.4-2.1-0.6
						c-0.7-0.2-1.4-0.3-2.2-0.5c-0.8-0.2-1.7-0.5-2.6-0.2C71.7,105.6,71.5,106.4,71.9,106.9L71.9,106.9z"/>
				</g>
				<g>
					<path class="st3" d="M96.3,111.4c0.2-0.1,0.4-0.3,0.5-0.5c0.1-0.2,0.2-0.4,0.2-0.6c0.1-0.3,0.2-0.6,0.3-1
						c0.2-0.7,0.4-1.3,0.6-2c0.2-0.7,0.3-1.3,0.5-2c0.1-0.3,0.1-0.7,0.2-1c0-0.2,0.1-0.3,0.1-0.5c0.1-0.3,0-0.6,0-0.9
						c-0.1-1-1.7-1.2-2.2-0.3c-0.1,0.3-0.2,0.5-0.3,0.8c0,0.1,0,0.2,0,0.3c0,0.1,0,0.2,0,0.1c-0.1,0.3-0.1,0.7-0.2,1
						c-0.1,0.7-0.2,1.3-0.4,2c-0.1,0.6-0.3,1.3-0.4,1.9c-0.1,0.3-0.2,0.7-0.2,1c-0.1,0.2-0.1,0.4-0.1,0.6c0,0.3,0.1,0.5,0.2,0.7
						C95.2,111.5,95.9,111.7,96.3,111.4L96.3,111.4z"/>
				</g>
				<g>
					<path class="st3" d="M90.2,101.9c0.4-0.5,0.8-1,1.1-1.6c0.3-0.6,0.6-1.2,0.8-1.9c0.4-1.2,0.7-2.5,1-3.7
						c0.2-0.8,0.5-1.9-0.2-2.6c-0.4-0.4-1.1-0.6-1.6-0.2c-0.6,0.4-0.7,0.9-0.8,1.5c0,0.1,0,0.3-0.1,0.4c0,0.1,0,0.2,0,0.3
						c0,0,0,0.2,0,0.1c0-0.1,0,0.1,0,0.1c0,0.1,0,0.2,0,0.3c0,0.2-0.1,0.4-0.1,0.5c-0.1,0.6-0.3,1.2-0.4,1.8c-0.2,0.7-0.4,1.4-0.6,2
						c-0.2,0.7-0.3,1.4-0.5,2.1c-0.1,0.4,0,0.7,0.4,0.9C89.5,102.2,90,102.2,90.2,101.9L90.2,101.9z"/>
				</g>
				<g>
					<path class="st3" d="M185.6,134.6c2.4,2.8,6.6,3,9.4,0.7c1.4-1.1,2.1-2.9,2.3-4.6c0.2-1.7-0.2-3.3-1.4-4.6
						c-1-1.1-3.6-3.3-4.8-1.4c-0.2,0.3-0.2,0.6,0,0.9c0.1,0.1-0.1-0.2,0-0.1c0.1,0.2,0.2,0.5,0.4,0.7c0.2,0.2,0.5,0.4,0.8,0.6
						c0.3,0.1,0.5,0.3,0.7,0.4c0.3,0.2,0.3,0.2,0.6,0.5c0.2,0.2,0.4,0.4,0.6,0.6c0.1,0.1,0.2,0.3,0.1,0.1c0.1,0.1,0.1,0.2,0.2,0.3
						c0.2,0.3,0-0.2,0,0.1c0,0.1,0.1,0.3,0.1,0.4c0.1,0.4,0.1,0.5,0.1,0.9c0,1.1-0.3,2.3-1.1,3.1c-0.8,0.9-1.9,1.4-3.1,1.5
						c-1.5,0.1-2.9-0.2-4.1-1.1C185.8,133.1,185.2,134.1,185.6,134.6L185.6,134.6z"/>
				</g>
				<g>
					<path class="st3" d="M197.1,123.2c1.1,1.3,2.6,2.6,4.3,3.2c1.7,0.6,3.6,0.3,5.1-0.7c3.1-2,4.4-6.1,2.5-9.4
						c-0.5-0.9-1.2-1.6-2-2.2c-0.8-0.6-2-1.2-3-0.8c-0.8,0.3-1.1,1.2-0.5,1.8c0.3,0.3,0.7,0.5,1.1,0.8c0.2,0.1,0.3,0.2,0.5,0.3
						c0.1,0,0.4,0.3,0.3,0.2c0.7,0.6,1,1,1.3,1.8c0.5,1.1,0.4,2.7-0.3,4c-0.8,1.3-2.1,2.3-3.7,2.2c-1.7-0.1-3.3-1.2-4.5-2.4
						C197.5,121.4,196.5,122.4,197.1,123.2L197.1,123.2z"/>
				</g>
				<g>
					<path class="st3" d="M186.2,110.4c2.6,2.7,6.9,2.4,9.7,0.2c2.8-2.2,3.7-7,0.7-9.5c-0.8-0.7-1.7-1.2-2.8-1.3
						c-0.9-0.1-2,0.3-2.4,1.2c-0.1,0.2,0,0.4,0.1,0.6c0.3,0.3,0.6,0.4,1,0.6c0.2,0.1,0.6,0.3,0.8,0.4c0.7,0.3,1.1,0.5,1.6,1.1
						c0.1,0.1,0.1,0.2,0.1,0.1c0.1,0.1,0.1,0.2,0.2,0.3c0.1,0.1,0.2,0.3,0.2,0.5c0,0.1,0.2,0.8,0.2,0.9c0.1,0.7,0,1.4-0.3,2
						c-0.6,1.5-2.1,2.5-3.6,2.9c-1.7,0.5-3.4,0.1-4.7-0.9C186.4,108.7,185.6,109.8,186.2,110.4L186.2,110.4z"/>
				</g>
				<g>
					<path class="st3" d="M176.5,122.4c1.3,0.7,2.7,1.3,4.2,1.3c1.5-0.1,2.9-0.8,3.9-2c1.9-2.1,2.4-5,1.1-7.5
						c-0.6-1.2-1.7-2.2-2.9-2.7c-0.7-0.2-1.7-0.2-2.1,0.5c-0.4,0.6,0.1,1.2,0.5,1.6c0.2,0.2,0.5,0.4,0.8,0.6
						c0.1,0.1,0.2,0.1,0.3,0.2c0,0,0.2,0.1,0.1,0c-0.1-0.1,0.1,0.1,0.2,0.1c0.2,0.2,0.4,0.4,0.5,0.6c-0.1-0.2,0.1,0.1,0.1,0.1
						c0.1,0.1,0.2,0.3,0.3,0.5c0,0.1,0.2,0.4,0.1,0.1c0,0.1,0.1,0.3,0.1,0.4c0,0.1,0.1,0.3,0.1,0.5c0,0.1,0,0.1,0,0.2
						c0-0.1,0,0,0,0.1c0,0.7,0,1-0.2,1.6c-0.3,1.1-1.1,2.2-2.2,2.7c-1.4,0.8-3.2,0.6-4.7,0.5C176.4,121.7,176.2,122.2,176.5,122.4
						L176.5,122.4z"/>
				</g>
				<g>
					<path class="st1" d="M196.3,103.6c-0.5-1.7-1.7-3-3.4-3.6c-2.2-0.7-4.8-0.1-6.5,1.5c-2,1.9-2.3,5.3-0.7,7.5
						c0.8,1.1,2,2,3.4,2.3c1.5,0.4,3.2,0,4.5-0.7C196.3,109.4,197.1,106.2,196.3,103.6z"/>
					<path class="st1" d="M184.1,114.8c-1.3-4.2-6.9-4.9-9.9-2.1c-2,1.9-2.3,5.3-0.7,7.5c0.8,1.1,2,2,3.4,2.3c1.5,0.4,3.2,0,4.5-0.7
						C184.1,120.6,184.9,117.4,184.1,114.8z"/>
					<path class="st1" d="M204.2,113.5c-2.1-0.7-4.9-0.1-6.5,1.5c-2,1.9-2.3,5.3-0.7,7.5c0.8,1.1,2,2,3.4,2.3c1.5,0.4,3.2,0,4.5-0.7
						c2.6-1.3,3.4-4.4,2.6-7.1C207.1,115.4,205.9,114.1,204.2,113.5z"/>
					<path class="st1" d="M191.7,124.1c-2.1-0.7-4.7-0.2-6.5,1.4c-2,1.9-2.3,5.3-0.7,7.5c0.8,1.1,2,2,3.4,2.3c1.5,0.4,3.2,0,4.5-0.7
						c2.6-1.3,3.4-4.4,2.6-7.1C194.6,125.7,193.3,124.6,191.7,124.1z"/>
				</g>
				<g>
					<path class="st1" d="M84,90.8c-0.1,0.3-6,25.1-5.2,25.7c0.7,0.6,5.8,1.8,7,0.9c1.2-0.9,5.4-25.1,5.4-25.8S84.5,89.4,84,90.8z"
						/>
					<path class="st1" d="M73.9,97.5c0,0,22.8,4.4,23,5s-0.7,7-1.4,7.3c-0.8,0.2-22.6-3.2-23.1-4.2C71.9,104.5,72.3,97.7,73.9,97.5z
						"/>
				</g>
				<g>
					<path class="st3" d="M202.3,123.2c1.2,0.2,2.4-0.3,3.2-1.1c0.4-0.4,0.8-1,1-1.5c0.3-0.7,0.4-1.5-0.2-2c0.1,0.1,0.1,0.1,0.2,0.2
						c0,0,0,0,0,0c-0.2-0.3-0.7-0.3-0.8,0c0,0,0,0,0,0c0.1-0.1,0.1-0.1,0.2-0.2c-0.3,0.2-0.5,0.5-0.6,0.8c-0.1,0.2-0.1,0.5-0.2,0.7
						c0,0.1,0,0.1-0.1,0.2c0,0.1,0,0,0,0c0,0,0,0.1,0,0.1c0,0.1-0.1,0.2-0.2,0.3c-0.1,0.1-0.1,0.2-0.2,0.3c-0.1,0.2,0.1-0.1,0,0
						c0,0-0.1,0.1-0.1,0.1c-0.2,0.2-0.3,0.3-0.5,0.5c-0.1,0.1-0.2,0.1-0.3,0.2c0.1-0.1,0,0-0.1,0c-0.1,0-0.1,0.1-0.2,0.1
						c-0.4,0.3-0.8,0.4-1.3,0.5c-0.2,0-0.3,0.3-0.3,0.5C201.9,123,202,123.2,202.3,123.2L202.3,123.2z"/>
				</g>
				<g>
					<path class="st3" d="M206.5,117.8c0-0.1,0-0.2-0.1-0.3c0-0.1,0-0.1,0-0.2c0-0.1,0-0.1,0-0.2c0-0.1-0.1-0.2-0.2-0.2
						c-0.1,0-0.2,0.1-0.2,0.2c0,0.1,0,0.1,0,0.2c0,0.1,0,0.1,0,0.2c0,0.1,0,0.2-0.1,0.3c0,0.1,0,0.1,0,0.2c0,0.1,0.1,0.1,0.1,0.2
						c0.1,0.1,0.2,0.1,0.3,0.1c0.1,0,0.2,0,0.3-0.1c0.1-0.1,0.1-0.1,0.1-0.2C206.5,117.9,206.5,117.8,206.5,117.8L206.5,117.8z"/>
				</g>
				<g>
					<path class="st3" d="M189.1,134.4c0.4,0.4,1.3,0.4,1.9,0.2c0.6-0.2,1.1-0.6,1.6-1.1c0.4-0.5,0.8-1.1,0.9-1.7
						c0.1-0.3,0.2-0.7,0.1-1c0-0.2,0-0.3-0.1-0.5c0-0.1,0-0.3-0.1-0.4c-0.1-0.1-0.2-0.2-0.4-0.1c-0.2,0.1-0.3,0.4-0.4,0.6
						c-0.1,0.2-0.2,0.5-0.3,0.7c-0.2,0.5-0.4,0.9-0.8,1.3c-0.1,0.1,0.1-0.1-0.1,0.1c0,0-0.1,0.1-0.1,0.1c-0.1,0.1-0.2,0.2-0.3,0.2
						c-0.1,0.1-0.1,0.1-0.2,0.2c-0.1,0.1-0.2,0.1-0.3,0.2c-0.3,0.1-0.3,0.1-0.6,0.2c-0.3,0.1-0.5,0.1-0.8,0.2
						C188.9,133.9,188.9,134.2,189.1,134.4L189.1,134.4z"/>
				</g>
				<g>
					<path class="st3" d="M177.8,120.6c1.2,0.9,3,0.6,4-0.5c0.3-0.3,0.5-0.7,0.5-1.1c0-0.2-0.1-0.5-0.3-0.5c-0.1,0-0.2,0-0.2,0
						c-0.1,0-0.2,0.1-0.2,0.1c0,0-0.1,0.1,0,0c0,0-0.1,0.1-0.1,0.1c-0.1,0.1-0.1,0.1-0.1,0.2c-0.1,0.1,0.1-0.1,0,0c0,0,0,0-0.1,0.1
						c0,0-0.2,0.2-0.1,0.1c0.1-0.1-0.1,0.1,0,0.1c-0.1,0.1-0.1,0.1-0.2,0.2c-0.1,0.1-0.1,0.1-0.2,0.2c0.1-0.1-0.1,0-0.1,0.1
						c-0.1,0.1-0.3,0.2-0.5,0.2c0,0-0.2,0.1,0,0c0,0-0.1,0-0.1,0.1c-0.1,0-0.2,0-0.2,0.1c-0.1,0-0.2,0-0.3,0.1c-0.1,0,0.1,0,0,0
						c-0.1,0-0.1,0-0.2,0c-0.4,0-0.6,0-0.9-0.2C177.8,119.6,177.4,120.3,177.8,120.6L177.8,120.6z"/>
				</g>
				<g>
					<path class="st3" d="M190.8,110.3c1.3,0.1,2.6-0.4,3.5-1.3c0.5-0.5,0.9-1,1.1-1.7c0.2-0.6,0.3-1.4-0.1-1.9
						c-0.1-0.2-0.3-0.1-0.4,0.1c-0.1,0.2-0.2,0.5-0.3,0.7c-0.1,0.3-0.2,0.5-0.3,0.8c0,0.1-0.1,0.2-0.1,0.3c-0.1,0.1-0.1,0.2-0.2,0.3
						c-0.2,0.2-0.3,0.4-0.4,0.6c-0.7,0.8-1.6,1.3-2.6,1.3C190.2,109.5,190.2,110.3,190.8,110.3L190.8,110.3z"/>
				</g>
				<g>
					<path class="st3" d="M119.2,95.1c-0.3,0.9-0.4,1.8-0.4,2.8c0,0.5,0.1,0.9,0.2,1.4c0.1,0.2,0.2,0.5,0.3,0.7
						c0.1,0.2,0.2,0.4,0.5,0.5c0.1,0.1,0.4,0.1,0.5-0.1c0.2-0.4,0.1-0.9,0.1-1.4c0-0.4-0.1-0.8-0.1-1.2c-0.1-0.9,0-1.7,0-2.6
						c0-0.3-0.2-0.5-0.4-0.5C119.5,94.7,119.3,94.8,119.2,95.1L119.2,95.1z"/>
				</g>
				<g>
					<path class="st3" d="M120,104.4c0.2,0.4,0.4,0.7,0.7,1.1c0.1,0.1,0.1,0.1,0.2,0.2c0.1,0.1,0.2,0.2,0.3,0.2c0,0,0.1,0,0.1,0.1
						c0.1,0,0.1,0,0.2,0c0,0,0,0-0.1,0c-0.1,0-0.1,0-0.1,0c0,0,0.1,0.1,0.1,0.1c0.2,0.1,0.3,0.1,0.5,0c0.1,0,0.3-0.2,0.2-0.3
						c0,0,0-0.1,0-0.1c0-0.1,0-0.1,0-0.2c0-0.1-0.1-0.1-0.1-0.2c0,0,0,0-0.1-0.1c0,0,0,0,0,0.1c0,0.1,0,0.1,0,0c0,0,0,0,0,0
						c0-0.1,0-0.1-0.1-0.2c0,0-0.1-0.1-0.1-0.1c-0.1-0.2-0.3-0.3-0.4-0.5c0,0,0.1,0.1,0.1,0.1c-0.2-0.2-0.3-0.5-0.5-0.8
						c-0.1-0.3-0.5-0.4-0.8-0.2C119.9,103.8,119.8,104.1,120,104.4L120,104.4z"/>
				</g>
				<g>
					<path class="st3" d="M158.7,139.7c0.6-0.1,1.2-0.2,1.7-0.5c0.5-0.3,0.9-0.7,1.3-1.1c0.4-0.5,0.7-1,0.9-1.5
						c0.2-0.6,0.4-1.4-0.2-1.8c-0.1-0.1-0.3-0.1-0.4,0c-0.5,0.3-0.5,0.9-0.7,1.3c-0.1,0.4-0.4,0.8-0.6,1.1c-0.1,0.1-0.3,0.3-0.5,0.5
						c-0.2,0.2-0.4,0.4-0.5,0.4c-0.4,0.3-0.7,0.5-1.2,0.7C158.2,139.1,158.3,139.7,158.7,139.7L158.7,139.7z"/>
				</g>
				<g>
					<path class="st3" d="M162.2,133.7c0.5-0.1,0.3-0.9-0.2-0.8C161.5,133.1,161.7,133.8,162.2,133.7L162.2,133.7z"/>
				</g>
				<g>
					<path class="st3" d="M111.6,136.1c1.2,0.2,2.5,0,3.5-0.7c0.5-0.4,1-0.8,1.3-1.3c0.4-0.5,0.8-1.3,0.3-1.8
						c-0.1-0.1-0.2-0.1-0.4-0.1c-0.5,0.1-0.8,0.8-1,1.2c-0.2,0.3-0.6,0.7-0.9,0.9c-0.8,0.6-1.7,0.9-2.7,0.9
						C111.3,135.2,111.1,136,111.6,136.1L111.6,136.1z"/>
				</g>
				<g>
					<path class="st3" d="M118.3,129.4c-0.1-0.3-0.2-0.6-0.3-0.8c0-0.1-0.1-0.1-0.1-0.2c0,0-0.1-0.1-0.2-0.1c-0.1,0-0.3,0.1-0.3,0.2
						c-0.1,0.3-0.1,0.5-0.2,0.8c0,0.2,0,0.4,0.1,0.5c0.1,0.1,0.2,0.2,0.4,0.2c0.1,0,0.3-0.1,0.4-0.2
						C118.3,129.8,118.4,129.6,118.3,129.4L118.3,129.4z"/>
				</g>
				<g>
					<path class="st3" d="M201.3,90.5c0.1,0,0.3,0,0.4,0c0.2,0,0.3,0,0.5,0c-0.1,0-0.1,0-0.2,0c0.1,0,0.3,0.1,0.4,0.1
						c0.1,0,0.2,0,0.3,0c0.1,0,0.1,0,0.2,0c0.1,0,0.2-0.1,0.2-0.1c0.1-0.1,0.2-0.2,0.2-0.3c0-0.1,0-0.2,0-0.4c0-0.1-0.2-0.4-0.3-0.4
						c-0.1,0-0.2-0.1-0.3-0.1c-0.1,0-0.2-0.1-0.3-0.1c-0.1,0-0.3,0-0.4,0c-0.2,0-0.3,0-0.5,0.1c-0.2,0.1-0.3,0.1-0.5,0.2
						c0,0-0.1,0.1-0.1,0.1c-0.1,0.1-0.1,0.1-0.1,0.2c0,0.1-0.1,0.2,0,0.4c0,0.1,0.1,0.2,0.1,0.3C201,90.5,201.2,90.5,201.3,90.5
						L201.3,90.5z"/>
				</g>
				<g>
					<path class="st3" d="M200.6,88.1c0.2,0,0.5,0.1,0.7,0.1c0.2,0,0.3,0,0.5,0.1c0.1,0,0.3,0,0.4-0.1c0.1,0,0.1-0.1,0.2-0.2
						c0.1-0.1,0.1-0.3,0.1-0.4c0-0.1-0.1-0.1-0.1-0.2c-0.1-0.1-0.2-0.1-0.3-0.2c-0.1,0-0.1,0-0.2,0c-0.1,0-0.2,0-0.3,0
						c-0.2,0-0.5-0.1-0.7-0.1c-0.1,0-0.3,0.1-0.4,0.1c-0.1,0.1-0.1,0.2-0.1,0.3c0,0.1,0,0.2,0.1,0.3C200.4,87.9,200.5,88,200.6,88.1
						L200.6,88.1z"/>
				</g>
				<g>
					<path class="st3" d="M100.1,79.3c0.3,0.1,0.6,0.3,0.9,0.3c0.1,0,0.3,0.1,0.4,0.1c0.2,0,0.3,0.1,0.5,0.1c0.2,0,0.5,0,0.6-0.3
						c0.1-0.1,0.1-0.2,0-0.3c-0.1-0.1-0.2-0.2-0.3-0.2c0,0-0.1,0-0.2,0c-0.1,0,0.1,0,0,0c0,0,0,0,0,0c-0.1,0-0.2,0-0.3,0
						c-0.1,0-0.1,0-0.2,0c0,0,0,0,0,0c0,0,0,0,0,0c0,0-0.1,0-0.1,0c-0.2,0-0.3-0.1-0.5-0.1c-0.1,0-0.1-0.1-0.2-0.1c0,0,0,0,0,0
						c0.1,0,0,0,0,0c0,0-0.1,0-0.1-0.1c-0.2-0.1-0.5-0.1-0.6,0.1C99.9,78.9,99.9,79.2,100.1,79.3L100.1,79.3z"/>
				</g>
				<g>
					<path class="st3" d="M102.2,77.3c0.1,0,0.1,0,0.2,0.1C102.3,77.3,102.3,77.3,102.2,77.3c0.1,0.1,0.2,0.1,0.3,0.2
						c0.1,0.1,0.2,0.1,0.2,0.2c0,0,0,0-0.1-0.1c0.1,0.1,0.1,0.1,0.2,0.2c0.1,0.1,0.2,0.1,0.4,0.1c0.1-0.1,0.2-0.2,0.1-0.3
						c0-0.1-0.1-0.2-0.1-0.3c0-0.1-0.1-0.2-0.1-0.3c-0.1-0.2-0.3-0.3-0.5-0.5c-0.1-0.1-0.2-0.1-0.4-0.1c-0.1,0-0.3,0.1-0.3,0.3
						C101.8,76.9,101.9,77.2,102.2,77.3L102.2,77.3z"/>
				</g>
				<g>
					<path class="st2" d="M213.5,187.7c1.6-0.3,3.3-0.8,4.7-1.8c0.7-0.5,1.4-1.1,2-1.8c0.3-0.4,0.7-0.8,0.9-1.3
						c0-0.1,0.2-0.7,0.2-0.7c-0.1,0.1,0,0.2,0,0c0.2-0.4,0.1-0.9-0.1-1.3c0.1,0.2,0.1,0.4,0.2,0.7c0-0.2,0.1-0.4,0-0.7
						c0-0.2-0.1-0.3-0.2-0.5c-0.1-0.3-0.6-0.5-0.9-0.4c0.3-0.1-0.4,0.1-0.4,0.1c-0.1,0-0.3,0.1-0.4,0.2c-0.1,0.1-0.1,0.1-0.1,0
						c0.2-0.1,0.4-0.1,0.7-0.2c-0.4,0-0.8,0.1-1.1,0.4c-0.1,0.1-0.1,0.1-0.2,0.2c0.3-0.2-0.2,0.1-0.2,0.2c-0.3,0.2-0.5,0.6-0.8,0.8
						c-0.5,0.5-1,1.1-1.6,1.5c-0.1,0.1-0.5,0.3-0.2,0.2c-0.2,0.2-0.4,0.3-0.7,0.5c-0.1,0.1-0.1,0.1,0,0c-0.1,0.1-0.1,0.1-0.2,0.2
						c-0.1,0.1-0.3,0.2-0.4,0.3c-0.3,0.2-0.6,0.4-1,0.5c0,0-0.3,0.1-0.1,0.1c0.1,0-0.1,0-0.1,0.1c-0.2,0.1-0.4,0.1-0.6,0.2
						c-0.6,0.2-1.1,0.9-0.9,1.6C212.2,187.5,212.8,187.9,213.5,187.7L213.5,187.7z"/>
				</g>
				<g>
					<path class="st2" d="M217.6,176.8c1.1-0.4,2.2-1,3-1.8c0.4-0.4,0.8-0.8,1-1.3c0.1-0.2,0.3-0.6,0.2-0.8c0-0.1,0,0,0,0.1
						c0,0.1,0,0.1,0,0c0,0,0-0.1,0-0.1c0.1-0.3,0.1-0.7,0-1c-0.1-0.4-0.5-0.6-0.9-0.5c-0.3,0.1-0.5,0.2-0.8,0.4c0,0-0.1,0.1-0.1,0.1
						c0.1-0.1,0.2-0.1,0.1,0c-0.1,0-0.2,0.1-0.3,0.1c0.1,0,0.2-0.1,0.3-0.1c-0.1,0.1-0.3,0.1-0.4,0.2c-0.1,0.1-0.2,0.2-0.3,0.3
						c-0.1,0.1-0.2,0.1-0.2,0.2c0.1-0.1,0.2-0.1,0.3-0.2c-0.4,0.3-0.8,0.6-1.2,0.9c0.1-0.1,0.2-0.2,0.3-0.2c-0.7,0.5-1.4,1-2.2,1.3
						c0.1-0.1,0.3-0.1,0.4-0.2c0,0,0,0-0.1,0c-0.4,0.2-0.7,0.3-0.9,0.7c-0.2,0.3-0.3,0.8-0.2,1.2c0.1,0.4,0.3,0.7,0.7,0.9
						C216.7,176.9,217.2,177,217.6,176.8L217.6,176.8z"/>
				</g>
				<g>
					<path class="st2" d="M61.9,173.7c1.7,0.1,3.4-0.1,5.1-0.4c0.8-0.2,1.6-0.4,2.4-0.7c0.8-0.3,2.1-1,2-2.1
						c-0.1-1.2-1.6-1.1-2.4-0.8c-0.8,0.2-1.6,0.6-2.4,0.8c-1.5,0.5-3.1,0.8-4.7,0.9c-0.6,0-1.1,0.4-1.2,1.1
						C60.8,173.1,61.3,173.6,61.9,173.7L61.9,173.7z"/>
				</g>
				<g>
					<path class="st2" d="M70.8,166c0.3-0.2,0.7-0.3,1-0.5c0.3-0.2,0.7-0.3,1-0.5c0.4-0.2,0.8-0.5,1.1-0.8c0.4-0.4,0.9-0.9,0.8-1.6
						c0-0.1-0.1-0.2-0.1-0.2c-0.2-0.2-0.4-0.3-0.6-0.5c-0.2-0.1-0.5-0.1-0.7,0c-0.2,0-0.3,0.1-0.5,0.1c-0.5,0.1-0.9,0.3-1.3,0.5
						c-0.4,0.1-0.7,0.3-1,0.5c-0.3,0.2-0.7,0.4-1,0.5c-0.7,0.4-1,1.3-0.5,2C69.2,166.1,70,166.3,70.8,166L70.8,166z"/>
				</g>
			</g>
		</g>
	</g>
	<g>
		<path class="st2" d="M21.6,184.3c-1.4,0.2-2.8,0.5-4.1,1c-1.3,0.5-2.7,1.1-3.6,2.2c-0.2,0.3,0,0.8,0.4,0.7
			c1.3-0.4,2.4-1.1,3.7-1.6c1.3-0.5,2.6-0.8,4-1c0.4,0,0.6-0.5,0.5-0.8C22.3,184.4,22,184.2,21.6,184.3L21.6,184.3z"/>
	</g>
	<g>
		<path class="st2" d="M24.5,195.7c-0.4,1.2-0.9,2.5-1.3,3.7c-0.2,0.6-0.4,1.2-0.6,1.8c-0.1,0.3-0.2,0.6-0.3,1
			c-0.1,0.3-0.1,0.7-0.1,1c0,0.5,0.7,0.7,0.9,0.3c0.2-0.3,0.4-0.6,0.6-0.9c0.1-0.3,0.3-0.6,0.4-0.9c0.2-0.6,0.5-1.2,0.7-1.8
			c0.4-1.2,0.9-2.5,1.3-3.7c0.2-0.4-0.2-0.9-0.6-1.1C25.1,195,24.7,195.3,24.5,195.7L24.5,195.7z"/>
	</g>
	<g>
		<path class="st2" d="M228.2,215.3c0.6,1.4,1.2,2.9,1.9,4.3c0.6,1.4,1.3,2.9,2.5,3.9c0.3,0.3,0.9,0.1,0.9-0.4
			c-0.1-1.6-0.8-3.1-1.5-4.5c-0.7-1.4-1.5-2.8-2.2-4.2c-0.2-0.4-0.8-0.6-1.2-0.3C228.1,214.4,228,214.9,228.2,215.3L228.2,215.3z"/>
	</g>
	<g>
		<path class="st2" d="M233.1,206.9c0.9,0.4,1.8,0.8,2.7,1.2c0.4,0.2,0.9,0.4,1.3,0.6c0.3,0.1,0.5,0.3,0.8,0.3
			c0.2,0,0.5,0.1,0.7,0.1c0.2,0,0.5,0,0.6-0.2c0.1-0.2,0.1-0.5-0.1-0.6c-0.2-0.1-0.3-0.3-0.5-0.4c-0.2-0.2-0.4-0.3-0.7-0.4
			c-0.4-0.2-0.9-0.4-1.3-0.6c-0.9-0.4-1.8-0.8-2.6-1.3c-0.4-0.2-0.9-0.1-1.1,0.3C232.7,206.1,232.7,206.7,233.1,206.9L233.1,206.9z"
			/>
	</g>
	<g>
		<path class="st2" d="M234.8,197.5c0.8,0.1,1.6,0.2,2.4,0.3c0.4,0,0.8,0.1,1.2,0.1c0.4,0,0.8,0,1.2,0c0.5,0,0.6-0.7,0.1-0.9
			c-0.4-0.1-0.8-0.3-1.2-0.4c-0.4-0.1-0.8-0.2-1.2-0.2c-0.8-0.2-1.7-0.3-2.5-0.4c-0.4-0.1-0.8,0.4-0.8,0.7
			C234.1,197.2,234.4,197.4,234.8,197.5L234.8,197.5z"/>
	</g>
</g>
</svg>
