<svg viewBox="0 0 54 24" fill="none" xmlns="http://www.w3.org/2000/svg">
<rect x="0.894287" width="35" height="24" rx="4" fill="black"/>
<path fill-rule="evenodd" clip-rule="evenodd" d="M18.6443 17.1569C17.4527 18.1852 15.907 18.806 14.2181 18.806C10.4494 18.806 7.39429 15.7154 7.39429 11.903C7.39429 8.09057 10.4494 5 14.2181 5C15.907 5 17.4527 5.62075 18.6443 6.64903C19.8359 5.62075 21.3815 5 23.0705 5C26.8392 5 29.8943 8.09057 29.8943 11.903C29.8943 15.7154 26.8392 18.806 23.0705 18.806C21.3815 18.806 19.8359 18.1852 18.6443 17.1569Z" fill="#ED0006"/>
<path fill-rule="evenodd" clip-rule="evenodd" d="M18.6443 17.1569C20.1115 15.8908 21.0418 14.0068 21.0418 11.903C21.0418 9.79917 20.1115 7.91516 18.6443 6.64903C19.8359 5.62075 21.3815 5 23.0705 5C26.8392 5 29.8943 8.09057 29.8943 11.903C29.8943 15.7154 26.8392 18.806 23.0705 18.806C21.3815 18.806 19.8359 18.1852 18.6443 17.1569Z" fill="#F9A000"/>
<path fill-rule="evenodd" clip-rule="evenodd" d="M18.6443 6.64905C20.1115 7.91518 21.0419 9.79917 21.0419 11.903C21.0419 14.0068 20.1115 15.8908 18.6443 17.1569C17.1772 15.8908 16.2468 14.0068 16.2468 11.903C16.2468 9.79917 17.1772 7.91518 18.6443 6.64905Z" fill="#FF5E00"/>
<rect x="18.8945" width="35" height="24" rx="4" fill="#00579F"/>
<path d="M33.8686 16.0828H31.8896L33.1274 8.4292H35.1063L33.8686 16.0828Z" fill="white"/>
<path d="M41.0419 8.61637C40.6515 8.46151 40.0324 8.29053 39.2669 8.29053C37.3126 8.29053 35.9364 9.33267 35.9279 10.8226C35.9117 11.9219 36.9132 12.5325 37.6623 12.899C38.428 13.2735 38.6882 13.518 38.6882 13.8518C38.6804 14.3646 38.0696 14.6009 37.4998 14.6009C36.7097 14.6009 36.2863 14.4791 35.643 14.1938L35.3824 14.0715L35.1055 15.7896C35.5696 16.0011 36.4248 16.1887 37.3126 16.1969C39.3891 16.1969 40.7409 15.1709 40.7569 13.5831C40.7648 12.7119 40.236 12.0443 39.0958 11.4988C38.4036 11.1486 37.9797 10.9124 37.9797 10.5541C37.9879 10.2284 38.3383 9.89475 39.1196 9.89475C39.7629 9.87841 40.2356 10.0331 40.5937 10.1878L40.7727 10.2691L41.0419 8.61637Z" fill="white"/>
<path d="M43.6731 13.3714C43.8361 12.9317 44.4632 11.23 44.4632 11.23C44.455 11.2463 44.6259 10.7822 44.7236 10.4972L44.8619 11.1567C44.8619 11.1567 45.2367 12.9887 45.318 13.3714C45.0088 13.3714 44.064 13.3714 43.6731 13.3714ZM46.1159 8.4292H44.5852C44.1131 8.4292 43.7545 8.5675 43.5508 9.06422L40.6113 16.0827H42.6878C42.6878 16.0827 43.0297 15.1381 43.1032 14.9346C43.331 14.9346 45.3509 14.9346 45.644 14.9346C45.7008 15.2033 45.8801 16.0827 45.8801 16.0827H47.7125L46.1159 8.4292V8.4292Z" fill="white"/>
<path d="M30.2365 8.4292L28.2984 13.6482L28.0867 12.5897C27.7283 11.3684 26.6046 10.0414 25.3506 9.38162L27.1258 16.0747H29.2185L32.3291 8.4292H30.2365V8.4292Z" fill="white"/>
<path d="M26.4988 8.4292H23.3148L23.2822 8.58384C25.7659 9.21897 27.4108 10.7499 28.0867 12.5901L27.3945 9.07255C27.2806 8.58373 26.9304 8.44532 26.4988 8.4292Z" fill="#FAA61A"/>
</svg>
