<svg width="24" height="24" viewBox="0 0 24 24" fill="none" xmlns="http://www.w3.org/2000/svg">
<path fill-rule="evenodd" clip-rule="evenodd" d="M23.52 12.2728C23.52 11.4219 23.4437 10.6037 23.3018 9.81824H12V14.4601H18.4582C18.18 15.9601 17.3346 17.231 16.0636 18.0819V21.0928H19.9418C22.2109 19.0037 23.52 15.9273 23.52 12.2728Z" fill="#4285F4"/>
<path fill-rule="evenodd" clip-rule="evenodd" d="M12 24C15.24 24 17.9564 22.9255 19.9419 21.0928L16.0637 18.0819C14.9891 18.8019 13.6146 19.2273 12 19.2273C8.87456 19.2273 6.2291 17.1164 5.28546 14.28H1.27637V17.3891C3.25092 21.311 7.3091 24 12 24Z" fill="#34A853"/>
<path fill-rule="evenodd" clip-rule="evenodd" d="M5.28546 14.2801C5.04546 13.5601 4.9091 12.791 4.9091 12.0001C4.9091 11.2092 5.04546 10.4401 5.28546 9.72006V6.61096H1.27637C0.463637 8.23096 0 10.0637 0 12.0001C0 13.9364 0.463637 15.7692 1.27637 17.3892L5.28546 14.2801Z" fill="#FBBC05"/>
<path fill-rule="evenodd" clip-rule="evenodd" d="M12 4.77286C13.7618 4.77286 15.3437 5.37831 16.5873 6.56741L20.0291 3.12558C17.9509 1.18921 15.2346 0.00012207 12 0.00012207C7.3091 0.00012207 3.25092 2.68922 1.27637 6.61104L5.28546 9.72014C6.2291 6.88377 8.87456 4.77286 12 4.77286Z" fill="#EA4335"/>
</svg>
